<svg width="54" height="21" viewBox="0 0 54 21" fill="none" xmlns="http://www.w3.org/2000/svg">
<g clip-path="url(#clip0_2731_1422)">
<path d="M50.0923 6.16626C50.1116 5.79953 50.0933 5.44713 49.9465 5.11479C49.6586 4.46295 49.1429 4.12412 48.4449 4.06422C48.0443 4.02984 47.6427 4.04435 47.2605 4.19777C46.7691 4.39504 46.408 4.71954 46.2495 5.23982C46.2453 5.25366 46.2418 5.26776 46.2386 5.28187C46.2037 5.43393 46.2037 5.43393 46.0504 5.43393C45.1468 5.43393 44.2433 5.43393 43.3397 5.43393H43.2114C43.2614 5.19918 43.2955 4.97294 43.3585 4.75504C43.7191 3.5075 44.533 2.65796 45.7002 2.12909C46.3478 1.8447 47.0429 1.6841 47.7496 1.65559C48.5191 1.60443 49.2917 1.68152 50.0359 1.88369C50.8169 2.10379 51.5099 2.47535 52.0569 3.08854C52.5109 3.59602 52.8078 4.22446 52.9113 4.89747C52.962 5.21543 52.9877 5.53686 52.9881 5.85883C52.9957 7.67951 52.9901 9.50024 52.9943 11.3209C52.9858 11.9918 53.0222 12.6624 53.1033 13.3284C53.1032 13.3383 53.1022 13.3483 53.1001 13.358H50.2874C50.2433 12.9018 50.1991 12.4451 50.1542 11.9813C50.104 12.0452 50.0576 12.1073 50.0082 12.1669C49.4339 12.8596 48.6948 13.2817 47.823 13.4733C46.8523 13.6867 45.8981 13.6322 44.9833 13.2247C44.0417 12.8053 43.3695 12.1207 43.1178 11.1062C42.8322 9.95531 43.0064 8.87249 43.7666 7.92794C44.2042 7.38431 44.7871 7.04009 45.4337 6.79767C46.0359 6.58308 46.6652 6.45352 47.3032 6.41273C47.9428 6.36033 48.5819 6.30161 49.2212 6.24559C49.4932 6.22176 49.7651 6.19781 50.037 6.17373C50.0539 6.17224 50.0706 6.16923 50.0923 6.16626ZM50.0936 8.35479C50.0287 8.35979 49.9714 8.36296 49.9144 8.36879C49.1346 8.44843 48.3547 8.52663 47.5753 8.60909C47.1685 8.65212 46.7832 8.7632 46.4487 9.00931C46.0654 9.29128 45.8911 9.67504 45.947 10.1453C46.0051 10.634 46.3153 10.9242 46.7614 11.0821C47.1295 11.2124 47.5111 11.199 47.8903 11.1539C48.3987 11.096 48.877 10.8829 49.2602 10.5438C49.6433 10.2046 49.9129 9.75579 50.0322 9.25817C50.0927 8.9611 50.1133 8.65731 50.0936 8.35479Z" fill="white"/>
<path d="M22.3513 13.3594H19.553C19.475 12.8984 19.4285 12.4325 19.4139 11.9652C19.3533 12.0425 19.3088 12.1018 19.2617 12.159C18.6852 12.8587 17.9409 13.2835 17.0627 13.4751C16.095 13.6862 15.143 13.632 14.2312 13.2249C13.2613 12.792 12.5832 12.0818 12.3454 11.031C12.0897 9.90098 12.2715 8.84119 13.0189 7.92136C13.457 7.38218 14.0368 7.03904 14.6806 6.7977C15.283 6.5831 15.9123 6.45352 16.5504 6.41271C17.1901 6.36031 17.8293 6.30154 18.4687 6.24553C18.7377 6.22196 19.0068 6.19833 19.2759 6.17462C19.2955 6.17288 19.3151 6.16954 19.3334 6.16711C19.4468 5.06651 18.8263 4.2106 17.8114 4.07859C17.3526 4.0189 16.8934 4.03259 16.4578 4.21804C15.9856 4.41907 15.6416 4.74425 15.4943 5.24998C15.4782 5.30541 15.4695 5.36302 15.4558 5.42682H12.4762C12.5017 5.14579 12.5598 4.8687 12.6495 4.60117C13.0045 3.53572 13.7037 2.76651 14.692 2.25166C15.3566 1.91386 16.0831 1.71528 16.8271 1.6681C17.7395 1.5975 18.6382 1.66729 19.5117 1.95413C20.2907 2.20993 20.9627 2.62814 21.4678 3.2869C21.8708 3.81678 22.1215 4.44658 22.1929 5.10842C22.224 5.38237 22.239 5.65791 22.2377 5.93362C22.2417 7.62676 22.2342 9.31994 22.2425 11.013C22.2456 11.6427 22.2789 12.2723 22.3032 12.9018C22.309 13.0519 22.3342 13.2013 22.3513 13.3594ZM19.337 8.35467C19.2746 8.35957 19.2197 8.36277 19.1651 8.36835C18.3825 8.44827 17.5998 8.52652 16.8175 8.60948C16.4107 8.65262 16.0246 8.76356 15.6921 9.01237C15.2881 9.31465 15.1194 9.72151 15.2061 10.2184C15.2811 10.6474 15.565 10.9069 15.9552 11.0638C16.2192 11.17 16.4968 11.1811 16.7771 11.1795C17.3932 11.1876 17.9917 10.9739 18.4633 10.5774C19.1522 9.99923 19.4 9.24168 19.337 8.35467Z" fill="white"/>
<path d="M31.5469 1.87637H34.5234V3.53617C34.541 3.51856 34.5575 3.49995 34.5729 3.48044C35.2419 2.45798 36.1885 1.86416 37.3917 1.69085C38.2626 1.56541 39.1146 1.65839 39.92 2.03088C40.8024 2.43894 41.3635 3.13814 41.6882 4.04004C41.9064 4.67865 42.0117 5.3504 41.9993 6.02515C42.0006 8.4383 42.0008 10.8514 41.9998 13.2646V13.3564H39.0108V13.2387C39.0108 10.9504 39.0109 8.66214 39.011 6.37386C39.0111 5.93236 38.9667 5.49793 38.7929 5.08694C38.515 4.42946 38.0123 4.09744 37.3024 4.05633C36.6645 4.0194 36.0872 4.16489 35.5891 4.5785C35.2135 4.89372 34.9254 5.3003 34.7524 5.75912C34.5971 6.167 34.5205 6.60059 34.5265 7.03699C34.5269 9.10167 34.527 11.1664 34.5267 13.231V13.357H31.5469V1.87637Z" fill="white"/>
<path d="M23.4727 1.87603H26.4496V4.12048L26.465 4.12306C26.5013 4.02673 26.5351 3.92935 26.5743 3.8342C27.0551 2.66754 27.9191 1.98049 29.1687 1.80453C29.5569 1.74987 29.9544 1.7609 30.3535 1.74158V4.51324C30.3204 4.51324 30.2868 4.51287 30.2533 4.51329C29.8002 4.51896 29.3468 4.51504 28.8943 4.53343C28.5101 4.5476 28.1323 4.63565 27.7814 4.79276C27.1195 5.0904 26.7453 5.61888 26.5722 6.3067C26.4845 6.68307 26.4439 7.06884 26.4512 7.45521C26.4514 9.38327 26.4514 11.3113 26.4513 13.2394V13.3567H23.4727V1.87603Z" fill="white"/>
<path d="M11.4707 14.7228C11.4236 15.5538 11.2124 16.3676 10.8486 17.1163C10.0268 18.7582 8.70205 19.743 6.90039 20.0734C5.69377 20.2946 4.50658 20.1992 3.37109 19.7169C1.84713 19.0696 0.862777 17.9208 0.335938 16.3663C0.135878 15.756 0.0241063 15.1197 0.00488281 14.4777C0.00298661 14.4315 0.0048828 14.3851 0.00488281 14.3322H3.00391C3.02044 14.5459 3.02985 14.755 3.05371 14.962C3.10196 15.4804 3.24926 15.9844 3.4873 16.4474C3.95063 17.3082 4.6686 17.7534 5.65039 17.7687C6.06679 17.7751 6.47409 17.7341 6.8584 17.5597C7.41281 17.3081 7.79381 16.884 8.05566 16.3448C8.28823 15.8436 8.42407 15.3027 8.45703 14.7511C8.46816 14.6131 8.47391 14.4746 8.48242 14.3312H11.4893C11.4833 14.4643 11.48 14.5937 11.4707 14.7228ZM11.541 1.16614C11.7004 1.30122 11.86 1.43606 12.0283 1.57825L10.2344 3.70227C10.2386 3.71312 10.2439 3.72364 10.25 3.73352C10.8705 4.5478 11.2691 5.5092 11.4072 6.52356C11.5752 7.65895 11.5096 8.7804 11.123 9.86536C10.4658 11.7101 9.19917 12.9245 7.28809 13.3995C5.73877 13.7846 4.22764 13.6403 2.81543 12.8556C1.57764 12.1677 0.778453 11.1099 0.333984 9.77747C0.0552327 8.9191 -0.0529448 8.01419 0.0166016 7.11438C0.077844 6.18451 0.302584 5.29801 0.754883 4.47961C1.56086 3.02141 2.79026 2.12189 4.41699 1.7804C5.63131 1.51396 6.89789 1.61649 8.05371 2.07434C8.06991 2.08071 8.08633 2.08752 8.10254 2.09387C8.17187 2.12106 8.24762 2.17884 8.30859 2.16614C8.3654 2.15419 8.40747 2.0681 8.4541 2.01282C9.00339 1.36302 9.5528 0.712863 10.1016 0.0626221C10.1182 0.042912 10.1331 0.0209171 10.1484 0.00012207H10.165C10.6235 0.388828 11.0825 0.777456 11.541 1.16614ZM5.50781 4.05872C5.19062 4.06912 4.87887 4.1451 4.5918 4.2804C4.00266 4.5601 3.62001 5.03075 3.36816 5.61731C3.09435 6.25507 3.01114 6.92896 3.01758 7.61633C3.01757 7.7381 3.01203 7.86015 3.01855 7.98157C3.04964 8.559 3.14731 9.12356 3.38477 9.6554C3.65192 10.2536 4.05556 10.7238 4.66992 10.9894C5.05723 11.1567 5.46541 11.1887 5.88086 11.1788C6.76989 11.1577 7.44855 10.7699 7.91602 10.0148C8.12499 9.66566 8.2727 9.28287 8.35254 8.88391C8.49202 8.21184 8.52027 7.52111 8.43555 6.83997C8.38775 6.35381 8.2534 5.87952 8.03906 5.44055C7.74271 4.8528 7.30798 4.41431 6.67676 4.18958C6.29706 4.05447 5.90387 4.0431 5.50781 4.05872Z" fill="white"/>
</g>
<defs>
<clipPath id="clip0_2731_1422">
<rect width="53.1032" height="20.1861" fill="white"/>
</clipPath>
</defs>
</svg>
