<svg id="!;>9_1" data-name="!;>9 1" xmlns="http://www.w3.org/2000/svg" viewBox="0 0 656.21 97.21"><defs><style>.cls-1{fill:#fff;}.cls-2{fill:#e21442;}.cls-3{fill:#fff;}</style></defs><path class="cls-1" d="M17.33,38.48c2.7-3.2,5.5-5.9,9.1-7.3,8.8-3.4,16.9-1.6,24.3,3.9a11.17,11.17,0,0,1,3.2,3.3c.9,1.4,1.3.9,2.1,0a23.61,23.61,0,0,1,10.8-7.9c10.8-3.8,27.3-.1,31.9,15.3a3.3,3.3,0,0,1-.1,2.4,43.54,43.54,0,0,0,1.4,32.5c1.6,3.7.8,8.1.1,12.1a2.84,2.84,0,0,1-3,2H85.43a3.11,3.11,0,0,1-3-2.7,16.35,16.35,0,0,1-.2-2.2c0-10.9.1-21.8,0-32.6,0-4.2-1.6-7.7-5.5-9.8-4.8-2.6-11.8-.3-15.1,4.8a11.41,11.41,0,0,0-1.8,6.5v31.4c0,3.8-1,4.8-4.8,4.8-3.1,0-6.1-.1-9.1,0-3.9.2-4.5-1.7-4.5-4.6V57.08c0-5.3-3.2-9.4-8.3-10.4-8.4-1.7-14.7,5.5-14.6,11.5.2,10.8.1,21.5.1,32.3,0,3.3-1.1,4.4-4.4,4.4h-10c-3.1,0-4.2-1.2-4.2-4.2V35.48a6.58,6.58,0,0,1,.4-2.8,3.58,3.58,0,0,1,3.7-2.5H12a3.34,3.34,0,0,1,3.1,1.8C16.43,33.88,16.73,36.08,17.33,38.48Z"/><path class="cls-1" d="M221.53,87.78a24.84,24.84,0,0,1-5.8,5.4c-4.8,3.1-10.1,3.4-15.6,2.7-13.1-1.6-23.9-11.9-26.4-26.8-1.8-10.8.3-21,7.7-29.5A29.5,29.5,0,0,1,201,29.38a21.56,21.56,0,0,1,17.8,5.6l.7.6h.2c.4-.5.2-1.1.2-1.6V8.38c0-3,1.2-4.1,4.2-4.1h9.8c3.1,0,4.3,1.2,4.3,4.2v81.9c0,3.4-1.2,4.6-4.6,4.6-2.4,0-4.7-.1-7-.1-2.5-.1-3.6-.9-4.2-3.5A20.89,20.89,0,0,1,221.53,87.78Zm-29.7-25a10.92,10.92,0,0,0,.4,4c.3,1,.6,2,1,3,4.3,10.4,16.5,12.8,24.2,4.6,6.2-6.6,5.7-18.1-1-24.2-5.8-5.3-13.1-5.4-19-.2a16.37,16.37,0,0,0-5.6,12.8Z"/><path class="cls-1" d="M489.83,36a20.92,20.92,0,0,1,7.3-5.1c8.2-3.1,15.9-1.8,23.3,2.3a29.89,29.89,0,0,1,11.8,12.1,2,2,0,0,1,.1,2,41.74,41.74,0,0,0,0,30.7,2,2,0,0,1-.1,2c-6.4,11-15.8,16.6-28.7,16.1a19.38,19.38,0,0,1-12.8-5.5,28.77,28.77,0,0,0-2.7-2.2,8.57,8.57,0,0,0-.5,2.7c-.5,2.5-1.9,3.8-4.5,3.8h-7.7c-2.6,0-3.9-1.4-3.9-3.9V8.18c0-2.4,1.3-3.8,3.7-3.8,3.6-.1,7.2,0,10.8,0,2.6,0,3.9,1.4,3.9,4Zm13.3,43.3a14,14,0,0,0,5.7-1.3c9.6-4.5,12.3-18.2,5-26.5-5.7-6.6-13.9-7.1-20.3-1.3-4.4,4-6,9.2-5.4,15C488.93,72.18,494.93,79.18,503.13,79.28Z"/><path class="cls-1" d="M321.43,87.78c-1.5,1.7-2.7,3.5-4.5,4.8a17.57,17.57,0,0,1-9.6,3.5c-8.4.5-16-1.4-22.7-6.7a30.7,30.7,0,0,1-11-18.1c-2.1-10.3-1-20.1,5.1-28.9a29,29,0,0,1,20.8-12.8,28.53,28.53,0,0,1,10.5.2,18,18,0,0,1,11.2,7.6c.3.4.6.8,1.1,1.4.5-2.2,1-4.1,1.4-6.1a2.85,2.85,0,0,1,3-2.4c2.8,0,5.6-.1,8.3,0a3.8,3.8,0,0,1,3.8,3.8v.2c-.1,3.6.4,7.1-.3,10.7-.6,2.7-1.9,5.1-2.6,7.8a39.53,39.53,0,0,0,1.5,24.5,19.27,19.27,0,0,1,1.5,8.2c-.1,1.8,0,3.6,0,5.4a3.6,3.6,0,0,1-3.7,4,75.28,75.28,0,0,1-9.5,0c-2.5-.1-3.6-1.4-3.9-4.4A8.42,8.42,0,0,0,321.43,87.78Zm-.5-25.1a13.61,13.61,0,0,0-.7-5.3c-1.7-5.5-5.1-9.5-10.9-10.8s-10.6.1-14.5,4.6c-3.5,4.1-4.6,9.1-3.9,14.5,1.4,10.8,11,16,20.6,12.5C317.53,76.08,320.93,70.28,320.93,62.68Z"/><path class="cls-1" d="M142.23,68.78h-20.1c-1.6,0-1.6.4-1.1,1.7,2.5,7,8.6,11.5,15.5,11.3a12.27,12.27,0,0,0,9.8-4.9,4.1,4.1,0,0,1,3.7-1.8h10.1c3.6,0,5.2,2.8,3.4,6A29.8,29.8,0,0,1,147,95.18c-16.4,5.9-35.5-1.2-41.6-19.5-4.6-13.6-2.4-26.3,8-36.8,7-7.1,15.8-9.6,25.7-8.7,13.7,1.2,25.5,11.3,28.5,26.8a31.78,31.78,0,0,1,.5,6.2c0,3.5-2.3,5.6-5.9,5.7C155.63,68.78,148.93,68.78,142.23,68.78Zm-21-13h27.7c1,0,.8-.5.6-1.1-2.4-5.5-6-9.3-12.5-9.9a15.14,15.14,0,0,0-15.8,11Z"/><path class="cls-1" d="M446.43,86a59.08,59.08,0,0,1-6.3,6c-7.9,6.1-20.4,4.3-27.2-.8-5.5-4-8-9.7-9.1-16.2-.6-4.1-.3-8.3-.4-12.5V34.78c0-3.5,1.1-4.7,4.7-4.7h9.6c3.2,0,4,.9,4,4v33c0,6,3.4,10.2,9.2,11.3,7.7,1.4,15.1-5,14.9-11.9-.3-10.5-.1-21.1-.1-31.7,0-3.7.9-4.6,4.6-4.6h9.8c2.8,0,3.9,1.2,3.9,3.9v56.8c0,3-1.1,4.1-4.2,4.1h-6.6c-3.2,0-4.6-1-5.7-4.1C447.13,89.28,447.13,87.58,446.43,86Z"/><path class="cls-1" d="M375.13,29.58a32.29,32.29,0,0,1,19.5,5.9c2.2,1.6,2.6,3.4,1.2,5.7s-2.9,4.8-4.3,7.2c-1.8,3-3.3,3.3-6.3,1.4-5-3.2-10.3-4.5-16-2s-9.4,9.7-8.7,16.4c.6,5.8,2.9,10.6,8.4,13.2s10.6,1.8,15.5-1.3c4-2.5,4.8-2.4,7.5,1.7,1.4,2.2,2.9,4.4,4.3,6.5s1.3,3.7-.9,5.2a34.83,34.83,0,0,1-14.7,6.2c-12.2,1.8-22.6-2-30.7-11.2a31.36,31.36,0,0,1-7.6-26.2c2.1-14.1,10.2-23.2,23.7-27.5A23.82,23.82,0,0,1,375.13,29.58Z"/><path class="cls-1" d="M265.73,62.48v28.2c0,3.1-1,4.2-4.2,4.2h-10.4c-2.5,0-3.6-1.1-3.6-3.6V34c0-2.8,1.4-4.1,4.2-4.1h9.8c2.8,0,4.4,1.5,4.4,4.3C265.73,43.68,265.73,53.08,265.73,62.48Z"/><path class="cls-1" d="M265.73,13.68v5.6a3,3,0,0,1-3.2,3.4c-4,.1-7.9,0-11.9,0a3,3,0,0,1-3.2-2.8V7.68c0-2,1.4-3.2,3.6-3.3,3.7-.1,7.5-.1,11.2,0,2.4.1,3.5,1.3,3.5,3.8Z"/><path class="cls-2" d="M628,0h-10.7a28.38,28.38,0,0,0-28.2,28.6V63.7a4.42,4.42,0,0,0,4.3,4.4H628a28.38,28.38,0,0,0,28.2-28.6V28.7A28.53,28.53,0,0,0,628,0Z"/><path class="cls-1" d="M591,74.59l-6.33-.15a4.14,4.14,0,0,0-4.9,1.54,12.27,12.27,0,0,1-9.8,4.9c-7,.2-13-4.3-15.5-11.3-.5-1.3-.4-1.7,1.1-1.7h22.12a5.44,5.44,0,0,0,5.44-5.44V34c0-.59,0-1.18,0-1.76a31.18,31.18,0,0,0-10.61-2.91c-9.9-.9-18.7,1.6-25.7,8.7-10.4,10.5-12.5,23.2-8,36.8,6.1,18.3,25.2,25.5,41.6,19.5a29.8,29.8,0,0,0,16.5-14.1C599.11,76.3,596.29,73,591,74.59ZM570.43,43.88c6.5.6,10.1,4.4,12.5,9.9.2.6.4,1.1-.6,1.1h-27.7A15.18,15.18,0,0,1,570.43,43.88Z"/><path class="cls-3" d="M636,37.24,615.6,49a2.65,2.65,0,0,1-4-2.29V23.15a2.65,2.65,0,0,1,4-2.29L636,32.65A2.66,2.66,0,0,1,636,37.24Z"/></svg>
