<svg width="32" height="32" viewBox="0 0 32 32" fill="none" xmlns="http://www.w3.org/2000/svg">
<path d="M5.18164 5.18164C5.53314 4.83047 6.10371 4.83027 6.45508 5.18164L16 14.7266L25.5459 5.18164C25.8973 4.83077 26.467 4.83061 26.8184 5.18164C27.1697 5.53301 27.1695 6.10358 26.8184 6.45508L17.2725 16L26.8184 25.5459C27.1697 25.8973 27.1695 26.4669 26.8184 26.8184C26.4669 27.1698 25.8974 27.1698 25.5459 26.8184L16 17.2725L6.45508 26.8184C6.10361 27.1698 5.53311 27.1698 5.18164 26.8184C4.83051 26.4669 4.83047 25.8973 5.18164 25.5459L14.7266 16L5.18164 6.45508C4.83017 6.10361 4.83017 5.53311 5.18164 5.18164Z" fill="white"/>
</svg>